<mxfile host="app.diagrams.net" agent="Mozilla/5.0 (Windows NT 10.0; Win64; x64; rv:133.0) Gecko/20100101 Firefox/133.0" version="26.0.2">
  <diagram name="Page-1" id="8mHkyLPpPVtDGo7M3In6">
    <mxGraphModel dx="1430" dy="782" grid="1" gridSize="10" guides="1" tooltips="1" connect="1" arrows="1" fold="1" page="0" pageScale="1" pageWidth="850" pageHeight="1100" math="0" shadow="0">
      <root>
        <mxCell id="0" />
        <mxCell id="1" parent="0" />
        <mxCell id="hxnexh2mNxICSxDjqbTO-1" value="Battery" style="rounded=0;whiteSpace=wrap;html=1;fillColor=#dae8fc;strokeColor=#6c8ebf;" parent="1" vertex="1">
          <mxGeometry x="40" y="320" width="200" height="120" as="geometry" />
        </mxCell>
        <mxCell id="hxnexh2mNxICSxDjqbTO-4" value="XT 60" style="rounded=0;whiteSpace=wrap;html=1;fillColor=#fff2cc;strokeColor=#d6b656;" parent="1" vertex="1">
          <mxGeometry x="300" y="320" width="40" height="40" as="geometry" />
        </mxCell>
        <mxCell id="hxnexh2mNxICSxDjqbTO-5" value="XT 60" style="rounded=0;whiteSpace=wrap;html=1;fillColor=#fff2cc;strokeColor=#d6b656;" parent="1" vertex="1">
          <mxGeometry x="340" y="320" width="40" height="40" as="geometry" />
        </mxCell>
        <mxCell id="hxnexh2mNxICSxDjqbTO-9" value="" style="rounded=0;whiteSpace=wrap;html=1;fillColor=#FF6666;strokeColor=none;" parent="1" vertex="1">
          <mxGeometry x="240" y="330" width="60" height="10" as="geometry" />
        </mxCell>
        <mxCell id="hxnexh2mNxICSxDjqbTO-10" value="" style="rounded=0;whiteSpace=wrap;html=1;fillColor=#4D4D4D;strokeColor=none;" parent="1" vertex="1">
          <mxGeometry x="240" y="340" width="60" height="10" as="geometry" />
        </mxCell>
        <mxCell id="hxnexh2mNxICSxDjqbTO-11" value="" style="rounded=0;whiteSpace=wrap;html=1;fillColor=#FF6666;strokeColor=none;" parent="1" vertex="1">
          <mxGeometry x="380" y="330" width="60" height="10" as="geometry" />
        </mxCell>
        <mxCell id="hxnexh2mNxICSxDjqbTO-12" value="" style="rounded=0;whiteSpace=wrap;html=1;fillColor=#4D4D4D;strokeColor=none;" parent="1" vertex="1">
          <mxGeometry x="380" y="340" width="200" height="10" as="geometry" />
        </mxCell>
        <mxCell id="hxnexh2mNxICSxDjqbTO-13" value="&lt;span style=&quot;color: rgb(255, 255, 255);&quot;&gt;Fuse&lt;/span&gt;" style="rounded=0;whiteSpace=wrap;html=1;fillColor=#999999;strokeColor=#4D4D4D;" parent="1" vertex="1">
          <mxGeometry x="440" y="300" width="80" height="40" as="geometry" />
        </mxCell>
        <mxCell id="hxnexh2mNxICSxDjqbTO-14" value="" style="rounded=0;whiteSpace=wrap;html=1;fillColor=#FF6666;strokeColor=none;" parent="1" vertex="1">
          <mxGeometry x="520" y="330" width="60" height="10" as="geometry" />
        </mxCell>
        <mxCell id="hxnexh2mNxICSxDjqbTO-15" value="XT 60" style="rounded=0;whiteSpace=wrap;html=1;fillColor=#fff2cc;strokeColor=#d6b656;" parent="1" vertex="1">
          <mxGeometry x="580" y="320" width="40" height="40" as="geometry" />
        </mxCell>
        <mxCell id="hxnexh2mNxICSxDjqbTO-20" value="" style="endArrow=classic;html=1;rounded=0;" parent="1" edge="1">
          <mxGeometry width="50" height="50" relative="1" as="geometry">
            <mxPoint x="630" y="339.65999999999997" as="sourcePoint" />
            <mxPoint x="680" y="339.65999999999997" as="targetPoint" />
          </mxGeometry>
        </mxCell>
        <mxCell id="hxnexh2mNxICSxDjqbTO-21" value="To Raven Board" style="text;html=1;align=center;verticalAlign=middle;whiteSpace=wrap;rounded=0;" parent="1" vertex="1">
          <mxGeometry x="690" y="320" width="60" height="40" as="geometry" />
        </mxCell>
        <mxCell id="hxnexh2mNxICSxDjqbTO-22" value="" style="endArrow=none;html=1;rounded=0;strokeWidth=5;fillColor=#fff2cc;strokeColor=#d6b656;" parent="1" edge="1">
          <mxGeometry width="50" height="50" relative="1" as="geometry">
            <mxPoint x="240" y="410" as="sourcePoint" />
            <mxPoint x="280" y="410" as="targetPoint" />
          </mxGeometry>
        </mxCell>
        <mxCell id="hxnexh2mNxICSxDjqbTO-23" value="" style="endArrow=none;html=1;rounded=0;strokeWidth=5;fillColor=#fff2cc;strokeColor=#d6b656;" parent="1" edge="1">
          <mxGeometry width="50" height="50" relative="1" as="geometry">
            <mxPoint x="240" y="420" as="sourcePoint" />
            <mxPoint x="280" y="420" as="targetPoint" />
          </mxGeometry>
        </mxCell>
        <mxCell id="hxnexh2mNxICSxDjqbTO-24" value="" style="endArrow=none;html=1;rounded=0;strokeWidth=5;fillColor=#f8cecc;strokeColor=#FF6666;" parent="1" edge="1">
          <mxGeometry width="50" height="50" relative="1" as="geometry">
            <mxPoint x="240" y="430" as="sourcePoint" />
            <mxPoint x="280" y="430" as="targetPoint" />
          </mxGeometry>
        </mxCell>
        <mxCell id="hxnexh2mNxICSxDjqbTO-25" value="" style="endArrow=none;html=1;rounded=0;strokeWidth=5;" parent="1" edge="1">
          <mxGeometry width="50" height="50" relative="1" as="geometry">
            <mxPoint x="240" y="400" as="sourcePoint" />
            <mxPoint x="280" y="400" as="targetPoint" />
          </mxGeometry>
        </mxCell>
        <mxCell id="hxnexh2mNxICSxDjqbTO-26" value="JST-XH" style="rounded=0;whiteSpace=wrap;html=1;" parent="1" vertex="1">
          <mxGeometry x="280" y="390" width="60" height="50" as="geometry" />
        </mxCell>
        <mxCell id="ryx68abtqZid4aqwQEEJ-1" value="" style="rounded=0;whiteSpace=wrap;html=1;fillColor=#4D4D4D;" vertex="1" parent="1">
          <mxGeometry x="340" y="390" width="100" height="90" as="geometry" />
        </mxCell>
        <mxCell id="ryx68abtqZid4aqwQEEJ-2" value="&lt;font style=&quot;font-size: 30px;&quot; face=&quot;Courier New&quot;&gt;&lt;b&gt;&lt;span style=&quot;color: rgb(255, 0, 0);&quot;&gt;XXX&lt;/span&gt;&lt;/b&gt;&lt;/font&gt;" style="text;html=1;align=center;verticalAlign=middle;whiteSpace=wrap;rounded=0;rotation=90;" vertex="1" parent="1">
          <mxGeometry x="375" y="415" width="90" height="40" as="geometry" />
        </mxCell>
        <mxCell id="ryx68abtqZid4aqwQEEJ-3" value="Extension cable" style="text;html=1;align=center;verticalAlign=middle;whiteSpace=wrap;rounded=0;" vertex="1" parent="1">
          <mxGeometry x="420" y="270" width="120" height="30" as="geometry" />
        </mxCell>
        <mxCell id="ryx68abtqZid4aqwQEEJ-5" value="Low voltage monitor" style="text;html=1;align=center;verticalAlign=middle;whiteSpace=wrap;rounded=0;" vertex="1" parent="1">
          <mxGeometry x="330" y="480" width="120" height="30" as="geometry" />
        </mxCell>
      </root>
    </mxGraphModel>
  </diagram>
</mxfile>
